<?xml version="1.0" encoding="UTF-8"?>
<svg id="Lager_1" data-name="Lager 1" xmlns="http://www.w3.org/2000/svg" viewBox="0 0 2256.37 462.41">
  <defs>
    <style>
      .cls-1 {
        fill: #d1f6ff;
      }

      .cls-2 {
        fill: #32b0e1;
      }
    </style>
  </defs>
  <circle class="cls-1" cx="1740.92" cy="298.32" r="130.8"/>
  <g>
    <g>
      <path class="cls-2" d="M311.07,239.26c-11.72,22.44-28.4,41.87-48.73,56.8,20.43,15.02,37.1,34.63,48.73,57.16,12,22.99,17.96,47.9,17.96,74.75v32.98h-65.22v-32.98c.09-13.19-2.56-26.29-7.69-38.48-10.08-23.72-29.04-42.68-52.76-52.76-12.19-5.13-25.29-7.78-38.48-7.69-40.03-.28-76.4,23.54-91.97,60.45-5.13,12.19-7.78,25.29-7.69,38.48v32.98H0V0h65.22v297.53c14.11-10.72,29.77-19.15,46.53-24.91,17.13-5.86,35.09-8.89,53.14-8.8,13.19.09,26.29-2.56,38.48-7.69,11.72-5.03,22.44-12.19,31.51-21.25,18.6-18.78,29.04-44.25,28.95-70.72v-32.24h65.22v32.24c0,27.38-5.95,52.4-17.96,75.11h-.02Z"/>
      <path class="cls-2" d="M416.24,131.9v329.04h-64.49V131.9h64.49Z"/>
      <path class="cls-2" d="M1031.08,132.64v164.15c.09,21.9-4.22,43.6-12.83,63.75-16.85,39.67-48.37,71.27-87.94,88.3-19.79,8.52-41.13,12.83-64.12,12.83-26.84,0-51.76-5.95-74.75-17.96-22.54-11.63-42.14-28.3-57.16-48.73-14.93,20.33-34.35,37.01-56.8,48.73-22.72,12-47.73,17.96-75.11,17.96-21.9.09-43.6-4.22-63.75-12.83-39.76-16.85-71.45-48.55-88.3-88.3-8.61-20.15-12.91-41.87-12.83-63.75v-164.15h65.95v164.15c-.28,40.03,23.54,76.4,60.45,91.97,12.19,5.13,25.29,7.78,38.48,7.69,54.78.28,99.39-43.79,99.67-98.57v-165.26h65.22v164.15c-.28,40.03,23.54,76.4,60.45,91.97,12.19,5.13,25.29,7.78,38.48,7.69,54.78.28,99.39-43.79,99.67-98.57v-165.26h65.22v.02Z"/>
      <path class="cls-2" d="M1119.75,131.9v329.04h-64.49V131.9h64.49Z"/>
      <path class="cls-2" d="M1437.07,131.9v65.22h-198.6c-17.96-.28-32.7,14.11-32.98,32.06v.92c-.19,8.89,3.3,17.49,9.53,23.82,6.05,6.5,14.57,10.08,23.46,9.89h131.91c13.19-.09,26.29,2.56,38.48,7.69,11.72,4.94,22.35,12,31.51,20.88,9.07,8.89,16.3,19.42,21.25,31.15,10.27,24.64,10.27,52.31,0,76.94-10.08,23.72-29.04,42.68-52.76,52.76-12.19,5.13-25.29,7.78-38.48,7.69h-197.86v-65.22h197.86c9.8,0,17.86-3.2,24.18-9.53,6.32-6.32,9.53-14.38,9.53-24.18.19-8.8-3.3-17.32-9.53-23.46-6.32-6.32-14.38-9.53-24.18-9.53h-131.91c-13.19.09-26.29-2.56-38.48-7.69-11.72-4.94-22.26-12.19-31.15-21.25-8.89-9.16-15.94-19.79-20.88-31.51-10.27-24.64-10.27-52.31,0-76.94,9.8-23.54,28.49-42.23,52.03-52.03,12.19-5.13,25.29-7.78,38.48-7.69h198.6Z"/>
      <path class="cls-2" d="M1555.05,131.9v329.04h-64.49V131.9h64.49Z"/>
      <path class="cls-2" d="M1940.16,233.4c16.77-39.39,48.18-70.63,87.57-87.21,20.15-8.61,41.87-12.91,63.75-12.83,22.99,0,44.34,4.3,64.12,12.83,19.51,8.33,37.29,20.33,52.4,35.18,15.11,14.83,27.21,32.52,35.54,52.03,8.52,19.79,12.83,41.13,12.83,64.12v164.89h-65.22v-164.89c.09-13.19-2.56-26.29-7.69-38.48-5.03-11.72-12.19-22.44-21.25-31.51-18.78-18.6-44.25-29.04-70.72-28.95-13.19-.09-26.29,2.56-38.48,7.69-23.72,10.08-42.68,29.04-52.76,52.76-5.13,12.19-7.78,25.29-7.69,38.48v164.89h-65.22v-164.89c0-22.99,4.22-44.34,12.83-64.12h0Z"/>
      <path class="cls-2" d="M1892.53,233.4c-8.33-19.51-20.43-37.19-35.54-52.03-15.11-14.83-32.88-26.84-52.4-35.18-19.79-8.52-41.13-12.83-64.12-12.83-21.9-.09-43.6,4.22-63.75,12.83-39.39,16.58-70.81,47.82-87.57,87.21-8.52,19.79-12.83,41.13-12.83,64.12-.19,21.9,4.22,43.6,12.83,63.75,8.25,19.69,20.24,37.56,35.18,52.76,30.68,31.05,72.55,48.46,116.15,48.37,22.99,0,44.34-4.3,64.12-12.83,39.57-17.04,71.08-48.64,87.94-88.3,8.61-20.15,12.91-41.87,12.83-63.75,0-22.99-4.3-44.34-12.83-64.12h0ZM1740.92,417.4c-65.77,0-119.09-53.31-119.09-119.09s53.31-119.09,119.09-119.09,119.09,53.31,119.09,119.09-53.31,119.09-119.09,119.09Z"/>
    </g>
    <path class="cls-2" d="M1740.92,197.55c-55.65,0-100.76,45.11-100.76,100.76s45.11,100.76,100.76,100.76,100.76-45.11,100.76-100.76-45.11-100.76-100.76-100.76ZM1792.77,277.07c.55,1.28-.55,3.75-2.38,4.49-1.83.73-7.05-.64-7.05-.64,0,0,2.75-4.67,4.58-5.41,1.83-.73,4.3.28,4.86,1.56h0ZM1780.68,258.83c1,1,1,3.66-.46,5.03-1.47,1.38-6.78,2.11-6.78,2.11,0,0,.83-5.31,2.2-6.69,1.37-1.37,4.03-1.47,5.03-.46h.01ZM1758.15,249.12c.73-1.83,3.2-2.94,4.49-2.38,1.28.55,2.2,3.11,1.47,4.86s-5.41,4.49-5.41,4.49c0,0-1.28-5.13-.55-6.96h0ZM1740.92,242.34c1.47,0,3.3,1.92,3.3,3.94s-3.3,6.23-3.3,6.23c0,0-3.3-4.3-3.3-6.23s1.83-3.94,3.3-3.94ZM1719.67,246.56c1.38-.55,3.75.55,4.49,2.38.73,1.83-.64,7.05-.64,7.05,0,0-4.67-2.75-5.41-4.58-.73-1.83.19-4.3,1.56-4.86h0ZM1701.35,258.75c1-1,3.66-.92,5.03.46,1.37,1.37,2.2,6.69,2.2,6.69,0,0-5.31-.73-6.78-2.11s-1.47-4.03-.46-5.03h.01ZM1689.26,276.69c.55-1.28,3.11-2.28,4.86-1.47s4.58,5.41,4.58,5.41c0,0-5.22,1.37-7.05.55-1.83-.83-2.94-3.2-2.38-4.49ZM1689.16,319.66c-.55-1.37.55-3.75,2.38-4.49,1.83-.73,7.05.64,7.05.64,0,0-2.75,4.67-4.58,5.41-1.83.73-4.3-.19-4.86-1.56h0ZM1701.35,337.8c-1-1-.92-3.66.46-5.03,1.37-1.38,6.69-2.11,6.69-2.11,0,0-.73,5.31-2.11,6.69s-4.03,1.47-5.03.46h-.01ZM1723.79,347.6c-.83,1.83-3.2,2.94-4.49,2.38-1.28-.55-2.28-3.02-1.47-4.86.83-1.83,5.41-4.58,5.41-4.58,0,0,1.37,5.22.55,7.05h0ZM1740.92,354.29c-1.47,0-3.3-2.02-3.3-3.94s3.3-6.23,3.3-6.23c0,0,3.3,4.22,3.3,6.23s-1.83,3.94-3.3,3.94ZM1762.26,350.16c-1.28.55-3.75-.55-4.49-2.38-.73-1.83.64-7.05.64-7.05,0,0,4.67,2.75,5.41,4.58.73,1.83-.28,4.3-1.56,4.86h0ZM1780.4,337.98c-1,1-3.66.92-5.03-.46-1.38-1.37-2.11-6.69-2.11-6.69,0,0,5.31.73,6.69,2.11,1.37,1.38,1.47,4.03.45,5.03h0ZM1792.58,320.03c-.55,1.28-3.11,2.2-4.86,1.47-1.74-.73-4.49-5.41-4.49-5.41,0,0,5.13-1.28,6.96-.55s2.94,3.2,2.38,4.49h0ZM1762.35,298.32l37.01,11.63-38.57-3.39,29.68,24.91-34.35-17.96,17.96,34.35-24.91-29.68,3.39,38.57-11.63-37.01-11.63,37.01,3.48-38.57-24.91,29.68,17.96-34.35-34.44,17.96,29.77-24.91-38.65,3.39,37.01-11.63-37.01-11.63,38.65,3.48-29.77-24.91,34.44,17.96-17.96-34.44,24.91,29.77-3.48-38.65,11.63,37.01,11.63-37.01-3.39,38.65,24.91-29.77-17.96,34.44,34.35-17.96-29.68,24.91,38.57-3.48-37.01,11.63ZM1796.89,298.32c0,1.47-2.02,3.3-3.94,3.3s-6.23-3.3-6.23-3.3c0,0,4.22-3.3,6.23-3.3s3.94,1.83,3.94,3.3ZM1684.96,298.32c0-1.47,1.92-3.3,3.94-3.3s6.23,3.3,6.23,3.3c0,0-4.3,3.3-6.23,3.3s-3.94-1.83-3.94-3.3Z"/>
  </g>
</svg>