<?xml version="1.0" encoding="UTF-8"?>
<svg id="Lager_1" data-name="Lager 1" xmlns="http://www.w3.org/2000/svg" viewBox="0 0 708.66 708.66">
  <defs>
    <style>
      .cls-1 {
        fill: #d1f6ff;
      }

      .cls-2 {
        fill: #adc438;
      }

      .cls-3 {
        fill: #fff;
      }
    </style>
  </defs>
  <path class="cls-1" d="M22.25,353.59c0-46.41,8.69-89.49,25.89-129.43,33.84-79.51,97.26-142.56,176.77-176.03,40.68-17.38,84.5-26.07,128.69-25.89,46.41,0,89.49,8.69,129.43,25.89,39.38,16.83,75.25,41.05,105.76,71,30.51,29.95,54.92,65.64,71.74,105.02,17.2,39.94,25.89,83.02,25.89,129.43.19,44.19-8.51,88.01-25.89,128.69-34.02,80.06-97.63,143.85-177.51,178.24-39.94,17.2-83.02,25.89-129.43,25.89-88.01.18-172.51-34.95-234.45-97.63-30.14-30.69-54.36-66.75-71-106.5-17.38-40.68-26.26-84.5-25.89-128.69ZM152.42,353.59c0,111.13,90.05,201.17,200.99,201.36,111.13,0,201.17-90.05,201.36-200.99v-.18c.18-26.63-5.18-53.07-15.53-77.66-10.17-23.67-24.59-45.3-42.9-63.61-78.77-78.77-206.53-78.95-285.3-.18-18.31,18.31-32.91,39.94-43.08,63.79-10.54,24.41-15.72,50.85-15.53,77.47Z"/>
  <circle class="cls-1" cx="354.15" cy="352.85" r="240.37"/>
  <circle class="cls-2" cx="355.07" cy="353.78" r="203.39"/>
  <polygon class="cls-3" points="354.52 310.88 378 236.18 371.16 314.21 421.45 254.12 385.21 323.64 454.55 287.4 394.64 337.69 472.49 330.66 397.79 354.15 472.49 377.63 394.64 370.79 454.55 421.08 385.21 384.84 421.45 454.18 371.16 394.27 378 472.11 354.52 397.41 331.04 472.11 338.06 394.27 287.77 454.18 324.01 384.84 254.49 421.08 314.58 370.79 236.55 377.63 311.25 354.15 236.55 330.66 314.58 337.69 254.49 287.4 324.01 323.64 287.77 254.12 338.06 314.21 331.04 236.18 354.52 310.88"/>
  <g>
    <path d="M354.52,446.6s-6.66,8.69-6.66,12.57,3.7,7.95,6.66,7.95,6.66-3.88,6.66-7.95-6.66-12.57-6.66-12.57Z"/>
    <path d="M354.52,261.7s-6.66-8.69-6.66-12.57,3.7-7.95,6.66-7.95,6.66,3.88,6.66,7.95-6.66,12.57-6.66,12.57Z"/>
    <path d="M446.97,354.15s8.69,6.66,12.57,6.66,7.95-3.7,7.95-6.66-3.88-6.66-7.95-6.66-12.57,6.66-12.57,6.66Z"/>
    <path d="M262.07,354.15s-8.69,6.66-12.57,6.66-7.95-3.7-7.95-6.66,3.88-6.66,7.95-6.66,12.57,6.66,12.57,6.66Z"/>
    <path d="M389.84,439.76s-2.77,10.54-1.29,14.24c1.48,3.7,6.47,5.92,9.06,4.81,2.59-1.11,4.62-6.1,3.14-9.8-1.48-3.7-10.91-9.25-10.91-9.25Z"/>
    <path d="M319.39,268.72s-9.43-5.55-10.91-9.25c-1.48-3.7.37-8.69,3.14-9.8,2.77-1.11,7.58,1.11,9.06,4.81s-1.29,14.24-1.29,14.24Z"/>
    <path d="M440.13,319.02s10.54,2.77,14.24,1.29c3.7-1.48,5.92-6.47,4.81-9.06-1.11-2.59-6.1-4.62-9.8-3.14s-9.24,10.91-9.24,10.91Z"/>
    <path d="M269.1,389.46s-5.55,9.43-9.25,10.91c-3.7,1.48-8.69-.37-9.8-3.14-1.11-2.77,1.11-7.58,4.81-9.06,3.7-1.48,14.24,1.29,14.24,1.29Z"/>
    <path d="M419.79,419.79s1.48,10.72,4.25,13.5c2.77,2.77,8.14,2.96,10.17.92,2.03-2.03,1.85-7.4-.92-10.17-2.77-2.77-13.5-4.25-13.5-4.25Z"/>
    <path d="M289.25,288.69s-10.72-1.48-13.68-4.25c-2.96-2.77-2.96-8.14-.92-10.17s7.4-1.85,10.17.92c2.77,2.77,4.44,13.5,4.44,13.5Z"/>
    <path d="M420.16,288.88s10.72-1.48,13.68-4.25c2.96-2.77,2.96-8.14.92-10.17-2.03-2.03-7.4-1.85-10.17.92-2.77,2.77-4.44,13.5-4.44,13.5Z"/>
    <path d="M289.06,419.42s-1.48,10.72-4.25,13.5c-2.77,2.77-8.14,2.96-10.17.92s-1.85-7.4.92-10.17c2.77-2.77,13.5-4.25,13.5-4.25Z"/>
    <path d="M439.94,390.02s5.55,9.43,9.06,10.91,8.69-.37,9.8-2.96-1.11-7.58-4.81-9.06-14.05,1.11-14.05,1.11Z"/>
    <path d="M269.28,318.46s-10.54,2.77-14.24,1.11c-3.7-1.66-5.92-6.47-4.81-9.06,1.11-2.59,6.29-4.62,9.8-2.96,3.51,1.66,9.24,10.91,9.24,10.91Z"/>
    <path d="M390.39,268.91s9.43-5.55,10.91-9.06c1.48-3.51-.37-8.69-2.96-9.8-2.59-1.11-7.58,1.11-9.06,4.81-1.48,3.7,1.11,14.05,1.11,14.05Z"/>
    <path d="M318.83,439.39s2.77,10.54,1.11,14.24c-1.66,3.7-6.47,5.92-9.06,4.81-2.59-1.11-4.62-6.1-2.96-9.8,1.66-3.7,10.91-9.25,10.91-9.25Z"/>
  </g>
</svg>